<?xml version="1.0" encoding="utf-8"?>
<!-- Generator: Adobe Illustrator 19.1.0, SVG Export Plug-In . SVG Version: 6.00 Build 0)  -->
<svg version="1.1" id="Layer_1" xmlns="http://www.w3.org/2000/svg" xmlns:xlink="http://www.w3.org/1999/xlink" x="0px" y="0px"
	 viewBox="-17 -135.4 64 370.4" style="enable-background:new -17 -135.4 64 370.4;" xml:space="preserve">
<g>
	<path d="M20.3-121.9H8.4c-1.7,0-3.2,0.3-4.7,0.9s-2.7,1.4-3.8,2.5s-1.9,2.3-2.6,3.8c-0.6,1.5-1,3-1,4.7v3H-17v-3
		c0-3.5,0.7-6.8,2-9.9s3.1-5.8,5.4-8.1c2.3-2.3,5-4.1,8.1-5.4s6.4-2,9.9-2H47v13.3H33.7v14.9H20.4v-14.7H20.3z"/>
	<path d="M1.2-74.7c2,1.6,4.4,2.4,7.1,2.4c1.7,0,3.3-0.3,4.8-1c1.5-0.6,2.7-1.5,3.8-2.6c1.1-1.1,1.9-2.4,2.5-3.8
		c0.6-1.5,0.9-3,0.9-4.8c0-1.7-0.3-3.2-1-4.6c-0.6-1.4-1.5-2.7-2.6-3.8c-1.1-1.1-2.4-1.9-3.9-2.5s-3-0.9-4.7-0.9s-3.2,0.3-4.6,1
		c-1.4,0.6-2.7,1.5-3.8,2.6s-1.9,2.4-2.5,3.9s-0.9,3.1-0.9,4.7v19.3H-17v-19.3c0-3.5,0.7-6.8,2-9.9s3.1-5.8,5.4-8.1
		c2.3-2.3,5-4.1,8-5.5s6.3-2,9.8-2s6.8,0.7,9.9,2s5.8,3.1,8.1,5.3c2.3,2.3,4.1,4.9,5.5,8c1.3,3,2,6.3,2,9.8c0,3.6-0.7,6.9-2,10
		s-3.1,5.8-5.4,8.1c-2.3,2.3-5,4.1-8.1,5.4s-6.4,2-9.9,2c-2.4,0-4.7-0.4-7.1-1C1.2-60,1.2-74.7,1.2-74.7z"/>
	<path d="M20.3-34.8c0-1.7-0.3-3.2-1-4.7c-0.6-1.5-1.5-2.7-2.6-3.8c-1.1-1.1-2.4-1.9-3.8-2.5c-1.5-0.6-3-0.9-4.7-0.9s-3.2,0.3-4.7,1
		c-1.5,0.6-2.7,1.5-3.8,2.6s-1.9,2.3-2.5,3.8c-0.6,1.4-0.9,3-0.9,4.6v12H-17v-12c0-3.5,0.7-6.8,2-9.8s3.1-5.7,5.4-8s5-4.1,8.1-5.4
		s6.4-2,9.9-2s6.8,0.7,9.9,2s5.8,3.1,8.1,5.4s4.1,5,5.4,8.1c1.3,3.1,2,6.4,2,9.9v12H20.5v-12.3H20.3z"/>
	<path d="M8.3,29.1H-17V15.8H8.3h0.1c1.7,0,3.2-0.3,4.6-1c1.4-0.6,2.7-1.5,3.8-2.6c1.1-1.1,1.9-2.4,2.6-3.8c0.6-1.5,1-3,1-4.7
		s-0.3-3.2-1-4.6c-0.6-1.4-1.5-2.7-2.6-3.8S14.4-6.6,13-7.3c-1.5-0.6-3-1-4.7-1H-17v-13.3h64v13.3H30.7c2,3.6,3,7.6,3,11.9
		c0,3.5-0.7,6.8-2,9.9c-1.3,3.1-3.1,5.8-5.4,8.1s-5,4.1-8.1,5.4C15.2,28.4,11.9,29.1,8.3,29.1L8.3,29.1z"/>
	<path d="M20.3,93.3H8.4c-1.7,0-3.2,0.3-4.7,0.9c-1.5,0.6-2.7,1.4-3.8,2.5S-2,99-2.7,100.5c-0.6,1.5-1,3-1,4.7v3H-17v-3
		c0-3.5,0.7-6.8,2-9.9c1.3-3.1,3.1-5.8,5.4-8.1c2.3-2.3,5-4.1,8.1-5.4c3.1-1.3,6.4-2,9.9-2H47v13.3H33.7v15.1H20.4V93.3H20.3z"/>
	<path d="M-17,156.1v-13.2H8.3c1.7-0.1,3.3-0.4,4.8-1c1.5-0.6,2.7-1.5,3.9-2.6c1.1-1.1,2-2.4,2.6-3.9s0.9-3,0.9-4.8
		c0-1.7-0.3-3.2-1-4.6c-0.6-1.4-1.5-2.7-2.6-3.8c-1.1-1.1-2.4-1.9-3.9-2.5s-3-0.9-4.8-0.9c-2.9,0-5.5,1-7.8,2.9l-17.4,15v-17.6
		l7.8-6.9c0.4-0.3,0.8-0.5,1-0.8c0.3-0.3,0.5-0.5,0.9-0.8c2.1-1.7,4.5-3,7.1-3.9c2.6-1,5.4-1.4,8.3-1.4c3.5,0,6.8,0.7,9.9,2
		s5.8,3.1,8.1,5.4s4.1,5,5.5,8c1.3,3,2,6.3,2,9.7c0.1,3.5-0.6,6.8-1.9,9.9c-1.3,3.1-3.1,5.8-5.4,8.1c-2.3,2.3-5,4.2-8.1,5.5
		c-3.1,1.4-6.4,2.1-9.9,2.1L-17,156.1L-17,156.1z"/>
	<path d="M20.3,181.7c0-1.7-0.3-3.2-1-4.7c-0.6-1.5-1.5-2.7-2.6-3.8s-2.4-1.9-3.8-2.5c-1.5-0.6-3-0.9-4.7-0.9s-3.2,0.3-4.7,1
		c-1.5,0.6-2.7,1.5-3.8,2.6s-1.9,2.3-2.5,3.8c-0.6,1.4-0.9,3-0.9,4.6v12H-17v-12c0-3.5,0.7-6.8,2-9.8s3.1-5.7,5.4-8
		c2.3-2.3,5-4.1,8.1-5.4s6.4-2,9.9-2s6.8,0.7,9.9,2s5.8,3.1,8.1,5.4c2.3,2.3,4.1,5,5.4,8.1c1.3,3.1,2,6.4,2,9.9v12H20.5v-12.3H20.3z
		"/>
	<path d="M15.7,226.3c-2.2,2.7-5,4.8-8.3,6.4c-3.3,1.7-6.9,2.5-10.8,2.5H-17V222h13.5c1.5,0,3-0.3,4.4-0.9c1.4-0.6,2.6-1.4,3.7-2.3
		c1-1,1.9-2.1,2.6-3.5c0.7-1.3,1.1-2.8,1.2-4.3v-0.5c0-0.1,0-0.3,0-0.4c0-0.1,0-0.3,0-0.4c0-0.3,0-0.5,0-0.6c0-0.2,0-0.3,0-0.4v-0.4
		H-17V195h64v13.3H21.6c0,1.7,0.3,3.2,1,4.6c0.6,1.4,1.5,2.7,2.6,3.8s2.3,1.9,3.8,2.6c1.5,0.6,3,1,4.7,1v13.3c-3.4,0-6.7-0.7-9.8-2
		C20.8,230.3,18.1,228.6,15.7,226.3z"/>
	<g>
		<path d="M15.5,76.5V43.9c1.4-0.4,2.6,0.5,3.7,1.5c1.1,1.1,1.9,2.4,2.5,3.8c0.6,1.5,0.9,3,0.9,4.7v9.7H36v-9.7c0-3.5-0.7-6.8-2-9.9
			c-1.3-3.1-3.1-5.8-5.4-8.1s-5-4.1-8.1-5.4c-2.7-1.2-5.6-1.8-8.6-2l0,0h-9v36c-1.2-0.6-2.2-1.3-3.1-2.2c-1.1-1.1-1.9-2.4-2.5-3.8
			c-0.6-1.5-0.9-3-0.9-4.7V34.2H-17v19.6c0,3.5,0.7,6.8,2,9.9c1.3,3.1,3.1,5.8,5.4,8.1c2.3,2.3,5,4.1,8.1,5.4C1.2,78.4,4,79,7,79.2
			l0,0h4.7h3.9v-2.7H15.5z"/>
	</g>
</g>
</svg>
