<?xml version="1.0" encoding="utf-8"?>
<!-- Generator: Adobe Illustrator 19.1.0, SVG Export Plug-In . SVG Version: 6.00 Build 0)  -->
<svg version="1.1" id="Layer_1" xmlns="http://www.w3.org/2000/svg" xmlns:xlink="http://www.w3.org/1999/xlink" x="0px" y="0px"
	 viewBox="100 -25 300 150" style="enable-background:new 100 -25 300 150;" xml:space="preserve">
<style type="text/css">
	.st0{fill:#FFFFFF;}
</style>
<path class="st0" d="M190.5,50c0,33.1,26.8,59.9,59.9,59.9s59.9-26.8,59.9-59.9S283.5-9.9,250.4-9.9S190.5,16.9,190.5,50z M196.6,50
	c0-29.7,24.1-53.8,53.7-53.8S304,20.3,304,50s-24.1,53.8-53.7,53.8S196.6,79.7,196.6,50z"/>
<path class="st0" d="M250.3,14.5c4.4,0,8.2,2.6,10.1,6.3c-1,0.6-1.9,1.3-2.8,2.1c-2,2-4.5,3-7.3,3c-2.7,0-5.3-1-7.3-3
	c-0.9-0.9-1.8-1.6-2.8-2.1C242.1,17,245.9,14.5,250.3,14.5z M261.5,24.4c0.1,0.4,0.1,0.8,0.1,1.2c0,7.2,5.9,13.1,13.1,13.1
	c0.4,0,0.8,0,1.2,0.1c-0.3,0.5-0.7,0.9-1,1.3c-2.7,2.7-4.1,6.1-4.1,9.9c0,3.7,1.5,7.3,4.1,9.9c0.4,0.4,0.8,0.8,1,1.3
	c-0.4,0.1-0.8,0.1-1.2,0.1c-7.2,0-13.1,5.9-13.1,13.1c0,0.4,0,0.8-0.1,1.2c-0.5-0.3-0.9-0.7-1.3-1.1c-2.7-2.7-6.1-4.1-9.9-4.1
	c-3.8,0-7.3,1.5-9.9,4.1c-0.4,0.4-0.8,0.8-1.3,1.1c-0.1-0.4-0.1-0.8-0.1-1.2c0-7.2-5.9-13.1-13.1-13.1c-0.4,0-0.8,0-1.2-0.1
	c0.3-0.5,0.7-0.9,1-1.3c2.7-2.7,4.1-6.1,4.1-9.9c0-3.7-1.5-7.3-4.1-9.9c-0.4-0.4-0.8-0.8-1-1.3c0.4-0.1,0.8-0.1,1.2-0.1
	c7.2,0,13.1-5.9,13.1-13.1c0-0.4,0-0.8,0.1-1.2c0.5,0.3,0.9,0.7,1.3,1.1c2.7,2.7,6.1,4.1,9.9,4.1c3.8,0,7.3-1.5,9.9-4.1
	C260.7,25.1,261.1,24.8,261.5,24.4z M279.6,39.9c3.7,1.9,6.3,5.7,6.3,10.1s-2.6,8.2-6.3,10.1c-0.6-1-1.3-1.9-2.1-2.8
	c-2-2-3-4.5-3-7.3s1-5.3,3-7.3C278.3,41.9,279,41,279.6,39.9z M260.4,79.3c-1.9,3.7-5.7,6.3-10.1,6.3c-4.4,0-8.2-2.6-10.1-6.3
	c1-0.6,2-1.3,2.8-2.1c2-2,4.5-3,7.3-3c2.7,0,5.3,1,7.3,3C258.5,78,259.4,78.7,260.4,79.3z M221,60.1c-3.7-1.9-6.3-5.7-6.3-10.1
	s2.6-8.2,6.3-10.1c0.6,1,1.3,1.9,2.1,2.8c2,2,3,4.5,3,7.3s-1.1,5.3-3,7.3C222.4,58.1,221.7,59.1,221,60.1z M250.3,87.4
	c5.2,0,9.6-3,11.7-7.3c1.7,0.7,3.5,1.1,5.5,1.1c3.8,0,7.3-1.5,9.9-4.1c2.7-2.7,4.1-6.1,4.1-9.9c0-1.9-0.4-3.8-1.1-5.5
	c4.3-2.1,7.3-6.6,7.3-11.7s-3-9.6-7.3-11.7c0.7-1.7,1.1-3.5,1.1-5.5c0-3.7-1.5-7.3-4.1-9.9c-2.7-2.7-6.1-4.1-9.9-4.1
	c-1.9,0-3.8,0.4-5.5,1.1c-2.1-4.3-6.6-7.4-11.7-7.4c-5.2,0-9.6,3-11.7,7.4c-1.7-0.7-3.5-1.1-5.5-1.1c-3.8,0-7.3,1.5-9.9,4.1
	c-2.6,2.6-4.1,6.1-4.1,9.9c0,1.9,0.3,3.8,1.1,5.5c-4.3,2.1-7.3,6.6-7.3,11.7s3,9.6,7.3,11.7c-0.7,1.7-1.1,3.5-1.1,5.5
	c0,3.7,1.5,7.3,4.1,9.9c2.7,2.7,6.1,4.1,9.9,4.1c1.9,0,3.8-0.4,5.5-1.1C240.8,84.4,245.2,87.4,250.3,87.4z M263.2,76.6
	c0.1-0.8,0.2-1.5,0.2-2.3c0-6.2,5-11.3,11.3-11.3c0.8,0,1.5-0.1,2.3-0.2c0.6,1.3,0.9,2.8,0.9,4.3c0,2.7-1.1,5.3-3,7.3
	c-2,2-4.5,3-7.3,3C266,77.5,264.6,77.2,263.2,76.6z M276.9,37.1c-0.8-0.1-1.5-0.2-2.3-0.2c-6.2,0-11.3-5-11.3-11.3
	c0-0.8-0.1-1.5-0.2-2.3c1.3-0.6,2.8-0.9,4.3-0.9c2.8,0,5.3,1,7.3,3c1.9,2,3,4.5,3,7.3C277.8,34.3,277.5,35.8,276.9,37.1z
	 M237.5,23.4c-0.1,0.8-0.2,1.5-0.2,2.3c0,6.2-5,11.3-11.3,11.3c-0.8,0-1.5,0.1-2.3,0.2c-0.6-1.3-0.9-2.8-0.9-4.3
	c0-2.7,1.1-5.3,3-7.3c2-2,4.5-3,7.3-3C234.7,22.5,236.1,22.9,237.5,23.4z M223.8,62.9c0.8,0.1,1.5,0.2,2.3,0.2
	c6.2,0,11.3,5,11.3,11.3c0,0.8,0.1,1.5,0.2,2.3c-1.3,0.6-2.8,0.9-4.3,0.9c-2.8,0-5.3-1-7.3-3s-3-4.5-3-7.3
	C222.8,65.7,223.1,64.2,223.8,62.9z"/>
</svg>
