<?xml version="1.0" encoding="utf-8"?>
<!-- Generator: Adobe Illustrator 19.1.0, SVG Export Plug-In . SVG Version: 6.00 Build 0)  -->
<svg version="1.1" id="Layer_1" xmlns="http://www.w3.org/2000/svg" xmlns:xlink="http://www.w3.org/1999/xlink" x="0px" y="0px"
	 viewBox="100 -25 300 150" style="enable-background:new 100 -25 300 150;" xml:space="preserve">
<style type="text/css">
	.st0{fill:#FFFFFF;}
</style>
<path class="st0" d="M189.3-11v120.8h120.8V-11H189.3z M255.1,83.2c0,11.7-6.9,17.1-16.9,17.1c-9.1,0-14.3-4.7-17-10.4l0,0l0,0l0,0
	l9.2-5.6c1.8,3.2,3.4,5.8,7.3,5.8c3.7,0,6.1-1.5,6.1-7.1V44.5h11.4L255.1,83.2L255.1,83.2L255.1,83.2z M281.9,100.3
	c-10.5,0-17.4-5-20.7-11.6l0,0l9.2-5.3c2.5,4,5.6,6.9,11.2,6.9c4.7,0,7.7-2.4,7.7-5.6c0-3.9-3.1-5.3-8.3-7.5l-2.8-1.2
	c-8.2-3.5-13.6-7.9-13.6-17.1c0-8.5,6.5-15,16.6-15c7.2,0,12.4,2.5,16.1,9.1l-8.8,5.7c-1.9-3.5-4.1-4.9-7.3-4.9
	c-3.3,0-5.4,2.1-5.4,4.9c0,3.4,2.1,4.8,7,6.9l2.8,1.2c9.6,4.2,15.1,8.4,15.1,17.8C300.7,94.7,292.7,100.3,281.9,100.3z"/>
</svg>
