<?xml version="1.0" encoding="utf-8"?>
<!-- Generator: Adobe Illustrator 19.1.0, SVG Export Plug-In . SVG Version: 6.00 Build 0)  -->
<svg version="1.1" id="Layer_1" xmlns="http://www.w3.org/2000/svg" xmlns:xlink="http://www.w3.org/1999/xlink" x="0px" y="0px"
	 viewBox="0 0 527.1 89.5" style="enable-background:new 0 0 527.1 89.5;" xml:space="preserve">
<style type="text/css">
	.st0{fill:#FFFFFF;}
</style>
<g>
	<path class="st0" d="M20.6,53.7c-1.4-0.6-2.7-1.4-3.8-2.5c-1.1-1.1-1.9-2.3-2.6-3.8c-0.6-1.5-1-3-1-4.7c0-1.7,0.3-3.2,0.9-4.7
		c0.6-1.5,1.4-2.7,2.5-3.8c1.1-1.1,2.3-1.9,3.8-2.6c1.5-0.6,3-1,4.7-1h12V17.4h-12c-3.5,0-6.8,0.7-9.9,2c-3.1,1.3-5.8,3.1-8.1,5.4
		c-2.3,2.3-4.1,5-5.4,8.1c-1.3,3.1-2,6.4-2,9.9c0,3.5,0.7,6.8,2,9.9c1.3,3.1,3.1,5.8,5.4,8.1s5,4.1,8,5.4c3,1.3,6.3,2,9.8,2h12V54.6
		h-12C23.6,54.6,22.1,54.3,20.6,53.7z"/>
	<path class="st0" d="M77.8,24.7c-2.3-2.3-5-4.1-8.1-5.4c-3.1-1.3-6.4-2-9.9-1.9c-3.4,0-6.7,0.7-9.7,2c-3,1.3-5.7,3.2-8,5.5
		c-2.3,2.3-4.1,5-5.4,8.1c-1.3,3.1-2,6.4-2,9.9c0,2.9,0.5,5.7,1.4,8.3c1,2.6,2.3,5,3.9,7.1c0.3,0.3,0.5,0.6,0.8,0.9
		c0.3,0.3,0.5,0.6,0.8,1l6.9,7.8h17.6L51,50.6c-1.9-2.3-2.9-4.9-2.9-7.8c0-1.7,0.3-3.3,0.9-4.8c0.6-1.5,1.4-2.7,2.5-3.9
		c1.1-1.1,2.3-2,3.8-2.6c1.4-0.6,3-1,4.6-1c1.7,0,3.3,0.3,4.8,0.9c1.5,0.6,2.7,1.5,3.9,2.6c1.1,1.1,2,2.4,2.6,3.9c0.6,1.5,1,3,1,4.8
		V68h13.2V42.7c-0.1-3.5-0.8-6.8-2.1-9.9C82,29.7,80.1,27,77.8,24.7z"/>
	<path class="st0" d="M240.4,17.4h-3c-3.5,0-6.8,0.7-9.9,2c-3.1,1.3-5.8,3.1-8.1,5.4c-2.3,2.3-4.1,5-5.4,8.1
		c-0.1,0.3-0.2,0.6-0.3,0.8V17.4h-13.2v25.4c0,1.7-0.3,3.2-1,4.7c-0.6,1.5-1.5,2.7-2.6,3.8c-1.1,1.1-2.3,1.9-3.8,2.5
		c-1.4,0.6-3,0.9-4.6,0.9c-1.7,0-3.2-0.3-4.7-0.9c-1.5-0.6-2.8-1.4-3.9-2.5c-1.1-1.1-1.9-2.3-2.6-3.8c-0.6-1.5-1-3-1-4.7V17.4H166
		h-2.9h-12V4h-13.3v31.3c-0.3-0.9-0.6-1.7-1-2.6c-1.3-3-3.1-5.7-5.4-8c-2.3-2.3-5-4.1-8.1-5.4c-3.1-1.3-6.4-2-9.9-2
		c-3.5,0-6.8,0.7-9.8,2c-3,1.3-5.7,3.1-8,5.4c-2.3,2.3-4.1,5-5.4,8.1c-1.3,3.1-2,6.4-2,9.9v46.8h13.3V42.7c0-1.7,0.3-3.2,0.9-4.7
		c0.6-1.5,1.4-2.7,2.5-3.8c1.1-1.1,2.3-1.9,3.8-2.6c1.4-0.6,3-1,4.6-1c1.7,0,3.2,0.3,4.7,0.9c1.5,0.6,2.7,1.4,3.9,2.5
		c1.1,1.1,2,2.3,2.6,3.8c0.6,1.4,1,3,1,4.6c0,1.7-0.3,3.2-0.9,4.7c-0.6,1.5-1.4,2.7-2.5,3.8c-1.1,1.1-2.3,1.9-3.8,2.6
		c-1.4,0.6-3,1-4.6,1c-2.9,0-5.3-0.8-7.4-2.4v14.8c2.4,0.7,4.9,1,7.4,1c3.5,0,6.8-0.7,9.8-2c3-1.3,5.7-3.2,8-5.5
		c2.3-2.3,4.1-5,5.4-8.1c0.6-1.5,1.1-3,1.4-4.6c0.3,1.6,0.8,3.2,1.4,4.7c1.3,3.1,3.1,5.8,5.4,8.1c2.3,2.3,5,4.1,8.1,5.4
		c3.1,1.3,6.4,2,9.9,2h3V54.6h-3c-1.7,0-3.2-0.3-4.7-1c-1.5-0.6-2.7-1.5-3.8-2.6c-1.1-1.1-1.9-2.4-2.5-3.8c-0.6-1.5-0.9-3-0.9-4.7
		V30.7h12v12c0,3.6,0.7,6.9,2,9.9s3.2,5.7,5.5,8c2.3,2.3,5,4.1,8.1,5.4c3.1,1.3,6.4,2,10,2c3.4,0,6.7-0.7,9.7-2c3-1.3,5.7-3.1,8-5.4
		c2.3-2.3,4-5,5.3-8.1c0.1-0.3,0.2-0.6,0.3-0.8V68h13.5V42.7c-0.1-1.7,0.2-3.2,0.8-4.7c0.6-1.5,1.4-2.7,2.5-3.8
		c1.1-1.1,2.4-1.9,3.8-2.6c1.5-0.6,3-1,4.7-1h3V17.4z"/>
	<path class="st0" d="M280.8,24.7c-2.3-2.3-5-4.1-8.1-5.4c-3.1-1.3-6.4-2-10-2c-3.5,0-6.8,0.7-9.8,2c-3.1,1.3-5.7,3.2-8,5.5
		c-2.3,2.3-4,5-5.3,8.1c-1.3,3.1-2,6.4-2,9.9c0,3.5,0.7,6.8,2,9.8s3.2,5.7,5.5,8c2.3,2.3,5,4.1,8.1,5.4c3.1,1.3,6.4,2,9.9,2h19.3
		V54.6H263c-1.7,0-3.2-0.3-4.7-0.9c-1.5-0.6-2.8-1.4-3.9-2.5c-1.1-1.1-1.9-2.3-2.6-3.8c-0.6-1.4-1-3-1-4.6c0-1.7,0.3-3.2,0.9-4.7
		c0.6-1.5,1.4-2.7,2.5-3.9c1.1-1.1,2.3-2,3.8-2.6c1.4-0.6,3-1,4.6-1c1.7,0,3.3,0.3,4.8,0.9c1.5,0.6,2.7,1.4,3.8,2.5
		c1.1,1.1,1.9,2.4,2.6,3.8c0.6,1.5,1,3,1,4.8c0,2.8-0.8,5.2-2.4,7.1h14.7c0.7-2.4,1-4.8,1-7.1c0-3.5-0.7-6.8-2-9.9
		C284.9,29.7,283.1,27,280.8,24.7z"/>
	<path class="st0" d="M460.6,24.7c-2.3-2.3-5-4.1-8.1-5.4c-3.1-1.3-6.4-2-9.9-1.9c-3.4,0-6.7,0.7-9.7,2c-3,1.3-5.7,3.2-8,5.5
		c-2.3,2.3-4.1,5-5.4,8.1c-1.3,3.1-2,6.4-2,9.9c0,2.9,0.5,5.7,1.4,8.3c1,2.6,2.3,5,3.9,7.1c0.3,0.3,0.5,0.6,0.8,0.9
		c0.3,0.3,0.5,0.6,0.8,1l6.9,7.8h17.6l-15.2-17.3c-1.9-2.3-2.9-4.9-2.9-7.8c0-1.7,0.3-3.3,0.9-4.8c0.6-1.5,1.4-2.7,2.5-3.9
		c1.1-1.1,2.3-2,3.8-2.6c1.4-0.6,3-1,4.6-1c1.7,0,3.3,0.3,4.8,0.9c1.5,0.6,2.7,1.5,3.9,2.6c1.1,1.1,2,2.4,2.6,3.9c0.6,1.5,1,3,1,4.8
		V68h13.2V42.7c-0.1-3.5-0.8-6.8-2.1-9.9C464.7,29.7,462.9,27,460.6,24.7z"/>
	<path class="st0" d="M527.1,30.7V17.4h-14.9V4h-13.3v13.3h-2.6c-3.5,0-6.8,0.7-9.9,2c-3.1,1.3-5.8,3.1-8.1,5.4
		c-2.3,2.3-4.1,5-5.4,8.1c-1.3,3.1-2,6.4-2,9.9V68h13.5V42.7c-0.1-1.7,0.2-3.2,0.8-4.7c0.6-1.5,1.4-2.7,2.5-3.8
		c1.1-1.1,2.4-1.9,3.8-2.6c1.5-0.6,3-1,4.7-1h2.5v11.9c0,3.5,0.7,6.8,2,9.9c1.3,3.1,3.1,5.8,5.4,8.1c2.3,2.3,5,4.1,8.1,5.4
		c3.1,1.3,6.4,2,9.9,2h3V54.6h-3c-1.7,0-3.2-0.3-4.7-1c-1.5-0.6-2.7-1.5-3.8-2.6c-1.1-1.1-1.9-2.4-2.5-3.8c-0.6-1.5-0.9-3-0.9-4.7
		V30.7H527.1z"/>
	<path class="st0" d="M371.3,35.8l9-27.2c-7.1-5.4-16-8.6-25.6-8.6c-7.9,0-15.2,2.1-21.6,5.9l24,19.7L371.3,35.8z"/>
	<path class="st0" d="M353,25.2l-21.8-18c-11.2,7.6-18.7,20.4-18.7,34.9c0,3.5,0.4,6.9,1.3,10.3l22.6-15.2L353,25.2z"/>
	<path class="st0" d="M339.8,47.3l-2.5-7.8l-22.8,15.2c5,15.8,19.1,27.6,36.3,29.2L339.8,47.3L339.8,47.3z"/>
	<path class="st0" d="M382.3,10.2l-13.8,40.9h-0.1l-1.6,5.7h27.8c1.5-4.1,2.4-9.5,2.4-14.4C397.1,29.6,391.4,17.8,382.3,10.2z"/>
	<path class="st0" d="M355.8,59.2h-10.3l7.7,25.2c0.5,0,1.1,0.2,1.6,0.2c17.5,0,32.5-11.6,38.9-25.4h-27.6H355.8z"/>
</g>
</svg>
