<?xml version="1.0" encoding="utf-8"?>
<!-- Generator: Adobe Illustrator 19.1.0, SVG Export Plug-In . SVG Version: 6.00 Build 0)  -->
<svg version="1.1" id="Layer_1" xmlns="http://www.w3.org/2000/svg" xmlns:xlink="http://www.w3.org/1999/xlink" x="0px" y="0px"
	 viewBox="100 -25 300 150" style="enable-background:new 100 -25 300 150;" xml:space="preserve">
<style type="text/css">
	.st0{fill:#FFFFFF;fill-opacity:0.45;}
	.st1{fill:#FFFFFF;}
</style>
<g>
	<path class="st0" d="M180.5,5.9l69.9-14V2.4l-69.9,10.5V5.9z"/>
	<path class="st1" d="M250.5-8.1l69.9,14v7L250.5,2.4V-8.1z"/>
	<path class="st0" d="M180.5,19.2v64.4l15.7,1.7V45.1l15.7,29l16.4-29v45.1l18.5,2.4V10.1L227,12.9l-15,29l-15-24.4L180.5,19.2z"/>
	<path class="st1" d="M320.4,19.2v64.4l-15.7,1.7V45.1l-15.7,29l-16.4-29v45.1l-18.5,2.4V10.1l19.9,2.8l15,29l15-24.5L320.4,19.2z"
		/>
	<path class="st0" d="M180.5,96.9l69.9,14v-10.5l-69.9-10.5C180.5,89.9,180.5,96.9,180.5,96.9z"/>
	<path class="st1" d="M250.5,110.9l69.9-14v-7l-69.9,10.5V110.9z"/>
</g>
</svg>
