<?xml version="1.0" encoding="utf-8"?>
<!-- Generator: Adobe Illustrator 19.1.0, SVG Export Plug-In . SVG Version: 6.00 Build 0)  -->
<svg version="1.1" id="Layer_1" xmlns="http://www.w3.org/2000/svg" xmlns:xlink="http://www.w3.org/1999/xlink" x="0px" y="0px"
	 viewBox="100 -25 300 150" style="enable-background:new 100 -25 300 150;" xml:space="preserve">
<style type="text/css">
	.st0{fill:#FFFFFF;}
	.st1{opacity:0.75;fill:#FFFFFF;}
</style>
<path id="path46" class="st0" d="M214.2,66.6c0-8.9-2.5-13.4-7.6-13.7c-2-0.1-4,0.2-5.9,1c-1.5,0.5-2.6,1.1-3.1,1.6v21.2
	c3.2,2,6.1,3,8.6,2.8C211.5,79.1,214.2,74.8,214.2,66.6z M220.4,66.9c0,4.5-1.1,8.2-3.2,11.2c-2.4,3.4-5.6,5.1-9.8,5.2
	c-3.2,0.1-6.4-0.9-9.8-3v19.2l-5.4-1.9V55c0.9-1.1,2-2,3.4-2.8c3.2-1.9,7.1-2.8,11.8-2.9l0.1,0.1c4.2-0.1,7.5,1.7,9.8,5.2
	C219.3,57.7,220.4,61.9,220.4,66.9z"/>
<path id="path48" class="st0" d="M253.6,79.5c0,6-0.6,10.2-1.8,12.5c-1.2,2.3-3.5,4.2-6.9,5.6c-2.8,1.1-5.8,1.7-9,1.8l-0.9-3.4
	c3.3-0.4,5.6-0.9,6.9-1.3c2.6-0.9,4.4-2.3,5.4-4.1c0.8-1.5,1.2-4.3,1.2-8.5v-1.4c-3.7,1.7-7.6,2.5-11.7,2.5c-2.7,0-5-0.8-7.1-2.5
	c-2.3-1.8-3.4-4.2-3.4-7V51.1l5.4-1.9V72c0,2.4,0.8,4.3,2.3,5.6c1.6,1.3,3.6,1.9,6.1,1.9c2.5-0.1,5.1-1,8-2.9V50.1h5.4V79.5z"/>
<path id="path50" class="st0" d="M274.7,83c-0.6,0.1-1.2,0.1-1.8,0.1c-3.1,0-5.5-0.7-7.2-2.2c-1.7-1.5-2.6-3.5-2.6-6.1V53.5h-3.7
	v-3.4h3.7V41l5.4-1.9v11h6.1v3.4h-6.1v21.2c0,2,0.5,3.5,1.6,4.3c0.9,0.7,2.4,1.1,4.5,1.2V83z"/>
<path id="path52" class="st0" d="M307.6,82.6h-5.4V61.7c0-2.1-0.5-4-1.5-5.5c-1.1-1.7-2.7-2.6-4.8-2.6c-2.5,0-5.6,1.3-9.3,3.9v25.1
	h-5.4v-50l5.4-1.7v22.8c3.5-2.5,7.2-3.8,11.4-3.8c2.9,0,5.2,1,7,2.9c1.8,1.9,2.7,4.3,2.7,7.2V82.6L307.6,82.6z"/>
<path id="path54" class="st0" d="M336.4,65.7c0-3.4-0.6-6.2-1.9-8.4c-1.5-2.7-3.9-4.1-7.1-4.3c-5.9,0.3-8.9,4.6-8.9,12.8
	c0,3.7,0.6,6.9,1.9,9.4c1.6,3.2,4,4.8,7.2,4.7C333.4,79.8,336.4,75.1,336.4,65.7z M342.3,65.7c0,4.8-1.2,8.9-3.7,12.1
	c-2.7,3.6-6.5,5.4-11.3,5.4c-4.8,0-8.5-1.8-11.1-5.4c-2.4-3.2-3.6-7.3-3.6-12.1c0-4.6,1.3-8.4,3.9-11.5c2.8-3.3,6.4-5,10.9-5
	c4.5,0,8.2,1.7,11,5C341,57.3,342.3,61.2,342.3,65.7z"/>
<path id="path56" class="st0" d="M373.4,82.6H368V60.5c0-2.4-0.7-4.3-2.2-5.7c-1.5-1.4-3.4-2-5.8-2c-2.6,0-5,0.9-7.4,2.5v27.2h-5.4
	V54.7c3.1-2.3,6-3.8,8.6-4.4c2.5-0.6,4.7-1,6.5-1c1.3,0,2.5,0.1,3.6,0.4c2.1,0.5,3.9,1.4,5.2,2.7c1.5,1.5,2.2,3.3,2.2,5.3V82.6z"/>
<path id="path1948" class="st0" d="M138.6,32.8c-2.8,0-5.5,0.3-7.8,0.7c-6.9,1.2-8.2,3.8-8.2,8.5v6.2H139v2.1h-16.3h-6.1
	c-4.7,0-8.9,2.9-10.2,8.3c-1.5,6.2-1.6,10.1,0,16.6c1.2,4.8,3.9,8.3,8.7,8.3h5.6v-7.5c0-5.4,4.7-10.1,10.2-10.1h16.3
	c4.5,0,8.2-3.7,8.2-8.3V41.9c0-4.4-3.7-7.7-8.2-8.5C144.3,32.9,141.4,32.7,138.6,32.8z M129.8,37.8c1.7,0,3.1,1.4,3.1,3.1
	c0,1.7-1.4,3.1-3.1,3.1c-1.7,0-3.1-1.4-3.1-3.1C126.8,39.2,128.1,37.8,129.8,37.8z"/>
<path id="path1950" class="st1" d="M157.3,50.2v7.2c0,5.6-4.8,10.3-10.2,10.3h-16.3c-4.5,0-8.2,3.8-8.2,8.3v15.5
	c0,4.4,3.8,7,8.2,8.3c5.2,1.5,10.1,1.8,16.3,0c4.1-1.2,8.2-3.6,8.2-8.3v-6.2H139v-2.1h16.3h8.2c4.7,0,6.5-3.3,8.2-8.3
	c1.7-5.1,1.6-10,0-16.6c-1.2-4.7-3.4-8.3-8.2-8.3H157.3z M148.2,89.5c1.7,0,3.1,1.4,3.1,3.1c0,1.7-1.4,3.1-3.1,3.1
	c-1.7,0-3.1-1.4-3.1-3.1C145.1,90.9,146.5,89.5,148.2,89.5z"/>
<path id="text3004" class="st0" d="M384,45.2h1v-6h2.3v-0.7h-5.5v0.7h2.3V45.2 M388,45.2h0.8v-5.4l1.8,5.4h0.9l1.8-5.4v5.4h0.9v-6.7
	H393l-2,5.7l-1.7-5.7H388V45.2"/>
</svg>
