<?xml version="1.0" encoding="utf-8"?>
<!-- Generator: Adobe Illustrator 19.1.0, SVG Export Plug-In . SVG Version: 6.00 Build 0)  -->
<svg version="1.1" id="Layer_1" xmlns="http://www.w3.org/2000/svg" xmlns:xlink="http://www.w3.org/1999/xlink" x="0px" y="0px"
	 viewBox="100 -25 300 150" style="enable-background:new 100 -25 300 150;" xml:space="preserve">
<style type="text/css">
	.st0{fill:#FFFFFF;}
</style>
<g>
	<path class="st0" d="M302.4,50c0-8.1-10.1-15.7-25.5-20.4c3.6-15.8,2-28.3-5-32.3c-1.6-0.9-3.5-1.4-5.5-1.4v0
		c-6.8,0-15.7,4.9-24.8,13.3C232.5,0.8,223.6-4,216.8-4v0c-2.1,0-4,0.4-5.6,1.4c-7,4-8.5,16.5-4.9,32.2
		C190.9,34.4,180.8,42,180.8,50c0,8.1,10.1,15.7,25.5,20.4c-3.6,15.8-2,28.3,5,32.3c1.6,0.9,3.5,1.4,5.6,1.4
		c6.8,0,15.7-4.9,24.8-13.3c9,8.4,17.9,13.2,24.8,13.2c2.1,0,4-0.4,5.6-1.4c7-4,8.5-16.5,4.9-32.2C292.4,65.7,302.4,58,302.4,50z
		 M266.3,1.4L266.3,1.4c1.1,0,2.1,0.2,2.8,0.7c3.4,1.9,4.8,9.3,3.7,18.8c-0.3,2.3-0.7,4.8-1.3,7.3c-4.9-1.2-10.2-2.1-15.7-2.7
		c-3.3-4.6-6.8-8.7-10.3-12.4C253.6,5.5,261.1,1.4,266.3,1.4z M219.7,62.7c1.2,2,2.4,3.9,3.6,5.8c-3.5-0.5-6.9-1.2-10.2-2
		c0.9-3.2,2.1-6.5,3.3-9.8C217.4,58.7,218.5,60.7,219.7,62.7z M213,33.5c3.2-0.8,6.7-1.4,10.2-2c-1.2,1.9-2.4,3.9-3.6,5.9
		c-1.1,2-2.2,4-3.2,5.9C215.1,40,213.9,36.7,213,33.5z M219.3,50.1c1.5-3.3,3.3-6.6,5.1-9.9c1.9-3.3,3.9-6.5,6-9.5
		c3.7-0.3,7.4-0.5,11.2-0.5c3.7,0,7.5,0.2,11.2,0.5c2.1,2.9,4.1,6.1,6,9.4c1.9,3.2,3.6,6.5,5.2,9.9c-1.6,3.3-3.3,6.6-5.1,9.9
		c-1.9,3.3-3.9,6.5-6,9.5c-3.7,0.3-7.4,0.5-11.2,0.5c-3.7,0-7.5-0.2-11.2-0.5c-2.1-2.9-4.1-6.1-6-9.4
		C222.6,56.7,220.9,53.4,219.3,50.1z M263.6,62.6c1.1-2,2.2-4,3.2-6c1.3,3.3,2.5,6.6,3.4,9.9c-3.2,0.8-6.7,1.5-10.2,2
		C261.2,66.6,262.4,64.6,263.6,62.6z M263.5,37.3c-1.1-2-2.4-3.9-3.6-5.8c3.5,0.5,6.9,1.2,10.2,2c-0.9,3.2-2.1,6.5-3.3,9.8
		C265.8,41.3,264.7,39.3,263.5,37.3z M248.4,24.9c-2.2-0.1-4.5-0.2-6.8-0.2c-2.3,0-4.6,0-6.9,0.2c2.2-2.9,4.5-5.6,6.8-7.9
		C243.8,19.3,246.2,22,248.4,24.9z M214,2.2c0.7-0.4,1.7-0.6,2.8-0.6v0c5.1,0,12.7,4.1,20.8,11.5c-3.5,3.6-6.9,7.8-10.2,12.4
		c-5.6,0.6-10.9,1.5-15.8,2.7c-0.6-2.5-1-4.9-1.3-7.2C209.2,11.5,210.6,4.1,214,2.2z M207.7,65.1c-2.5-0.8-4.8-1.6-6.9-2.5
		c-8.8-3.7-14.4-8.6-14.4-12.5c0-3.9,5.7-8.8,14.4-12.5c2.1-0.9,4.5-1.7,6.9-2.5c1.4,4.9,3.3,9.9,5.6,15.1
		C210.9,55.2,209.1,60.2,207.7,65.1z M216.9,98.6c-1.1,0-2.1-0.2-2.8-0.7c-3.4-1.9-4.8-9.3-3.7-18.8c0.3-2.3,0.7-4.8,1.3-7.3
		c4.9,1.2,10.2,2.1,15.7,2.7c3.3,4.6,6.8,8.7,10.3,12.4C229.6,94.5,222.1,98.6,216.9,98.6z M241.7,83.1c-2.3-2.4-4.6-5-6.9-7.9
		c2.2,0.1,4.5,0.2,6.8,0.2c2.3,0,4.6,0,6.9-0.2C246.2,78.1,243.9,80.7,241.7,83.1z M269.3,97.9c-0.7,0.4-1.7,0.6-2.8,0.6
		c-5.1,0-12.7-4.1-20.8-11.5c3.5-3.6,6.9-7.8,10.2-12.4c5.6-0.6,10.9-1.5,15.8-2.7c0.6,2.5,1,4.9,1.3,7.2
		C274.1,88.5,272.6,95.9,269.3,97.9z M282.4,62.6c-2.1,0.9-4.5,1.7-6.9,2.5c-1.4-4.9-3.3-9.9-5.6-15.1c2.3-5.2,4.1-10.2,5.5-15
		c2.5,0.8,4.8,1.6,7,2.5c8.8,3.7,14.4,8.6,14.4,12.5C296.9,53.9,291.2,58.8,282.4,62.6z"/>
	<circle class="st0" cx="241.6" cy="50" r="11.3"/>
</g>
</svg>
