<?xml version="1.0" encoding="utf-8"?>
<!-- Generator: Adobe Illustrator 19.1.0, SVG Export Plug-In . SVG Version: 6.00 Build 0)  -->
<svg version="1.1" id="Layer_1" xmlns="http://www.w3.org/2000/svg" xmlns:xlink="http://www.w3.org/1999/xlink" x="0px" y="0px"
	 viewBox="100 -25 300 150" style="enable-background:new 100 -25 300 150;" xml:space="preserve">
<style type="text/css">
	.st0{fill:#FFFFFF;}
</style>
<g>
	<path class="st0" d="M276.8,74.2c4.5-0.5,8-4.4,7.8-9.1s-4.1-8.5-8.8-8.5h-0.3c-4.9,0.1-8.6,4.2-8.5,9.1c0.1,2.4,1.1,4.4,2.5,5.8
		C264.2,82,256,89.7,243.8,96.1c-8.3,4.4-16.9,6-25.5,4.9c-7.1-1-12.6-4.1-16-9.2c-5-7.7-5.5-16-1.3-24.3c3-6,7.7-10.3,10.7-12.6
		c-0.6-2-1.6-5.5-2-8c-22.7,16.4-20.4,38.7-13.5,49.2c5.2,7.8,15.7,12.7,27.3,12.7c3.1,0,6.3-0.3,9.4-1.1
		C253,103.9,268.2,91.9,276.8,74.2z M304.3,54.8c-11.9-13.9-29.4-21.6-49.5-21.6h-2.5c-1.4-2.8-4.4-4.7-7.7-4.7h-0.3
		c-4.9,0.2-8.6,4.3-8.4,9.1c0.1,4.7,4.1,8.5,8.8,8.5h0.3c3.5-0.1,6.4-2.4,7.7-5.3h2.8c11.9,0,23.2,3.5,33.4,10.2
		c7.8,5.2,13.5,11.9,16.6,20.1c2.6,6.6,2.5,13-0.3,18.5c-4.4,8.3-11.7,12.8-21.5,12.8c-6.3,0-12.2-1.9-15.3-3.3
		c-1.7,1.6-4.9,4.1-7.1,5.6c6.7,3.1,13.6,4.9,20.2,4.9c15.1,0,26.2-8.3,30.4-16.6C316.4,83.8,316.1,68.1,304.3,54.8z M224.7,76.9
		c0.1,4.7,4.1,8.5,8.8,8.5h0.3c4.9-0.1,8.6-4.2,8.5-9.1c-0.1-4.7-4.1-8.5-8.8-8.5h-0.3c-0.3,0-0.8,0-1.1,0.1
		c-6.4-10.7-9.1-22.3-8.1-34.8c0.6-9.4,3.8-17.6,9.2-24.3c4.5-5.8,13.3-8.6,19.3-8.8c16.6-0.3,23.7,20.4,24.1,28.7
		c2,0.5,5.5,1.6,7.8,2.4c-1.9-25.4-17.6-38.6-32.6-38.6c-14.1,0-27.1,10.2-32.3,25.3c-7.2,20.1-2.5,39.3,6.3,54.5
		C225.1,73.5,224.6,75.2,224.7,76.9z"/>
</g>
</svg>
