<?xml version="1.0" encoding="utf-8"?>
<!-- Generator: Adobe Illustrator 19.1.0, SVG Export Plug-In . SVG Version: 6.00 Build 0)  -->
<svg version="1.1" id="Layer_1" xmlns="http://www.w3.org/2000/svg" xmlns:xlink="http://www.w3.org/1999/xlink" x="0px" y="0px"
	 viewBox="100 -25 300 150" style="enable-background:new 100 -25 300 150;" xml:space="preserve">
<style type="text/css">
	.st0{fill:#FFFFFF;}
</style>
<g transform="translate(8 8)">
	<path class="st0" d="M333.3,74.1v11.2h20.2c4.1,0,11.3-3,11.5-11.5v-4.3c0-7.2-5.9-11.5-11.5-11.5h-10.1v-5.2h20V41.5h-19.2
		c-4.9,0-11.6,4.1-11.6,11.7v3.9c0,7.6,6.6,11.5,11.6,11.5c13.9,0.1-3.3,0,9.5,0V74 M225,71.4c0,0,10.8-0.9,10.8-14.9
		s-13.1-15.3-13.1-15.3h-23.6v44.1H211V74.7l10.3,10.6h17.6L225,71.4z M220.4,62.4H211V52.3h9.5c0,0,2.7,1,2.7,5
		C223.1,61.3,220.4,62.4,220.4,62.4z M265.1,41.5H253c-8.6,0-11.5,7.8-11.5,11.5v32.3h12.1v-7.7h11.3v7.7h11.7V53
		C276.6,43.6,268.1,41.5,265.1,41.5z M264.9,65.1h-11.4V54.4c0,0,0-2.4,3.8-2.4h4.1c3.3,0,3.4,2.4,3.4,2.4L264.9,65.1L264.9,65.1z"
		/>
	<rect x="282.1" y="41.5" class="st0" width="12.6" height="43.8"/>
	<polygon class="st0" points="312.3,74 312.3,41.5 299.8,41.5 299.8,74 299.8,85.3 312.3,85.3 329.2,85.3 329.2,74 	"/>
	<path class="st0" d="M124.6,85.3h48.9c0,0-9.3-42.6,21.6-59.9c6.7-3.3,28.2-15.5,63.3,10.5c1.1-0.9,2.2-1.7,2.2-1.7
		s-32.2-32.1-68-28.5c-18,1.6-40.1,18-53.1,39.6S124.6,85.3,124.6,85.3z"/>
	<path class="st0" d="M124.6,85.3h48.9c0,0-9.3-42.6,21.6-59.9c6.7-3.3,28.2-15.5,63.3,10.5c1.1-0.9,2.2-1.7,2.2-1.7
		s-32.2-32.1-68-28.5c-18,1.6-40.1,18-53.1,39.6S124.6,85.3,124.6,85.3z"/>
	<path class="st0" d="M124.6,85.3h48.9c0,0-9.3-42.6,21.6-59.9c6.7-3.3,28.2-15.5,63.3,10.5c1.1-0.9,2.2-1.7,2.2-1.7
		s-32.2-32.1-68-28.5c-18.1,1.6-40.2,18-53.2,39.6S124.6,85.3,124.6,85.3z M226.4,9.2l0.2-4.1c-0.6-0.3-2.1-1.1-6-2.2L220.4,7
		C222.4,7.7,224.4,8.4,226.4,9.2z"/>
	<path class="st0" d="M220.5,22.3l-0.2,3.9c2,0.1,4.1,0.3,6.1,0.7l0.2-3.8C224.5,22.7,222.5,22.4,220.5,22.3z M197.6,3h0.6L197-0.8
		c-1.9,0-3.9,0.1-5.9,0.4l1.2,3.6C194,3.1,195.8,3,197.6,3z M200.6,25.8L202,30c1.8-0.9,3.6-1.6,5.4-2.2l-1.4-4.1
		C203.9,24.4,202.1,25.1,200.6,25.8z M172.5,9.5l-2.8-4.3c-1.5,0.8-3.2,1.7-4.8,2.7l2.8,4.3C169.3,11.2,170.9,10.3,172.5,9.5z
		 M185.2,37.3l3,4.5c1.1-1.5,2.3-3,3.6-4.4l-2.8-4.2C187.6,34.5,186.3,35.9,185.2,37.3z M176.2,57.3l5,4c0.2-2.4,0.7-4.8,1.3-7.2
		l-4.5-3.5C177.3,52.7,176.7,55,176.2,57.3z M149.1,27.9l-4.4-3.9c-1.6,1.5-3.2,3.1-4.6,4.6l4.8,4.1
		C146.2,31.1,147.6,29.4,149.1,27.9z M130.4,55.5l-7.1-2.6c-1.2,2.7-2.5,5.8-3.1,7.4l7.1,2.6C128.2,60.8,129.5,57.8,130.4,55.5z
		 M175.3,73c0.1,3.3,0.4,5.9,0.7,7.8l7.4,2.7c-0.6-2.4-1.1-5.1-1.5-8L175.3,73z"/>
</g>
</svg>
