<?xml version="1.0" encoding="utf-8"?>
<!-- Generator: Adobe Illustrator 19.1.0, SVG Export Plug-In . SVG Version: 6.00 Build 0)  -->
<svg version="1.1" id="Layer_1" xmlns="http://www.w3.org/2000/svg" xmlns:xlink="http://www.w3.org/1999/xlink" x="0px" y="0px"
	 viewBox="100 -25 300 150" style="enable-background:new 100 -25 300 150;" xml:space="preserve">
<style type="text/css">
	.st0{fill:#FFFFFF;}
</style>
<g>
	<g>
		<g>
			<g>
				<path class="st0" d="M191.5,35.3"/>
			</g>
			<g>
				<circle class="st0" cx="190.4" cy="15.9" r="1.8"/>
			</g>
			<g>
				<polygon class="st0" points="201.9,23.7 195.9,17.8 191.1,23.7 				"/>
			</g>
			<path class="st0" d="M192.7,33.4c0,0-2.3-11.7-17.5-8.5c-1.5-5.3-1.3-9.1,2.1-12.7C181.8,7.4,189,10,189,10V6
				c-2.5-1.1-4.9-1.3-7.6-1.3c-9.8,0-15.2,7.3-17.5,12.2l-27.4,50.5l7.7-1.5L130,93.4l9.9-1.8l7.6-21.6
				C169,70,196.5,62.3,192.7,33.4z M183.1,37.5c-0.1,0.4-0.1,0.7-0.1,1.1c-0.1,0.4-0.1,0.8-0.2,1.3c-0.1,0.4-0.2,0.9-0.3,1.4
				s-0.3,1-0.4,1.5c-0.1,0.6-0.4,1.1-0.6,1.7s-0.4,1.1-0.7,1.8c-0.1,0.3-0.3,0.6-0.4,0.8c-0.1,0.1-0.1,0.3-0.2,0.4
				c-0.1,0.1-0.2,0.3-0.2,0.4c-0.1,0.3-0.4,0.6-0.5,0.9c-0.2,0.3-0.4,0.6-0.6,0.8c-0.1,0.1-0.2,0.3-0.3,0.4l-0.3,0.4
				c-0.2,0.3-0.4,0.6-0.6,0.8c-0.5,0.6-0.9,1.1-1.5,1.6c-0.5,0.6-1.1,1-1.6,1.5l-0.8,0.7c-0.3,0.2-0.6,0.4-0.9,0.6
				c-1.2,0.8-2.5,1.6-3.7,2.3c-1.3,0.6-2.6,1.3-3.9,1.8c-1.3,0.5-2.5,0.9-3.7,1.3c-1.1,0.4-2.1,0.6-3.2,0.8c-0.1,0-0.1,0.1-0.2,0.1
				c-2.1,0.6-3.9,1-5.1,1.3c-1.3,0.3-2,0.4-2,0.4s0.7-0.1,1.8-0.6c1.3-0.2,3.1-0.6,5.2-1.1c0.1,0,0.2-0.1,0.3-0.1c1-0.3,2-0.6,3.2-1
				s2.5-0.8,3.7-1.4c1.3-0.5,2.5-1.1,3.8-1.8c1.3-0.7,2.5-1.5,3.6-2.4c0.3-0.2,0.6-0.4,0.8-0.7l0.8-0.7c0.5-0.5,1.1-1,1.5-1.5
				c0.5-0.5,0.9-1.1,1.3-1.6c0.2-0.3,0.4-0.6,0.6-0.8l0.3-0.4l0.3-0.4c0.1-0.3,0.4-0.6,0.5-0.8c0.1-0.3,0.3-0.6,0.5-0.8
				c0.1-0.1,0.1-0.3,0.2-0.4c0.1-0.1,0.1-0.3,0.2-0.4c0.1-0.3,0.3-0.6,0.4-0.8c0.2-0.6,0.4-1.1,0.6-1.7c0.1-0.6,0.4-1.1,0.5-1.6
				c0.1-0.5,0.2-1.1,0.4-1.5c0.1-0.5,0.1-0.9,0.2-1.4c0.1-0.4,0.1-0.8,0.1-1.2c0.1-0.4,0.1-0.7,0.1-1.1c0.1-1.3,0.1-2,0.1-2l1.1,0.1
				C183.3,35.5,183.2,36.3,183.1,37.5z"/>
		</g>
	</g>
	<g>
		<path class="st0" d="M219.2,63.7H213l-8.9-25.6h5.6l6.3,19.3l6.3-19.3h5.6l6.3,19.3l6.3-19.3h5.6l-8.6,25.6h-6.2l-6-17.5
			L219.2,63.7z"/>
		<path class="st0" d="M270.6,63.7h-4.9v-3.4c-2.1,2.5-4.9,3.8-8.5,3.8c-2.7,0-4.8-0.8-6.6-2.2c-1.8-1.5-2.6-3.5-2.6-6
			s0.9-4.4,2.8-5.6c1.8-1.3,4.4-1.9,7.5-1.9h7v-1c0-3.4-1.9-5.1-5.7-5.1c-2.4,0-4.8,0.8-7.4,2.6l-2.4-3.4c3.1-2.5,6.6-3.7,10.6-3.7
			c3,0,5.5,0.8,7.4,2.2c1.9,1.5,2.9,3.9,2.9,7.2L270.6,63.7C270.7,63.7,270.6,63.7,270.6,63.7z M265.2,54.1v-2.2h-6
			c-3.9,0-5.8,1.2-5.8,3.7c0,1.3,0.5,2.2,1.5,2.9c1,0.6,2.3,1,4,1s3.2-0.5,4.5-1.5C264.5,57.1,265.2,55.8,265.2,54.1z"/>
		<path class="st0" d="M299.8,38.1v22.3c0,4.5-1.2,7.9-3.7,10.2s-5.6,3.4-9.4,3.4c-3.9,0-7.3-1.2-10.4-3.6l2.5-4.1
			c2.5,1.9,5,2.8,7.6,2.8c2.5,0,4.6-0.6,6-2c1.5-1.3,2.2-3.4,2.2-6.3v-3.3c-0.8,1.5-2,2.7-3.4,3.6c-1.5,0.9-3.2,1.3-5,1.3
			c-3.4,0-6.2-1.2-8.4-3.6c-2.2-2.4-3.3-5.3-3.3-8.9c0-3.5,1.1-6.5,3.3-8.9c2.2-2.4,5-3.6,8.4-3.6c3.4,0,6.1,1.4,8.2,4.2v-3.8h5.3
			L299.8,38.1L299.8,38.1z M279.9,49.9c0,2.1,0.6,3.9,2,5.4c1.3,1.5,3,2.2,5.3,2.2c2.2,0,4-0.7,5.3-2.2s2-3.3,2-5.5s-0.7-4.1-2-5.6
			c-1.4-1.5-3.2-2.2-5.3-2.2c-2.1,0-3.9,0.8-5.2,2.4C280.5,46,279.9,47.8,279.9,49.9z"/>
		<path class="st0" d="M313.3,42.4v13c0,1.2,0.4,2.2,1,2.9c0.6,0.7,1.5,1.1,2.7,1.1c1.1,0,2.2-0.6,3.3-1.7l2.2,3.8
			c-1.9,1.7-4,2.5-6.3,2.5c-2.3,0-4.2-0.8-5.8-2.4s-2.5-3.7-2.5-6.4V42.4h-3.2V38h3.2v-7.9h5.4v8h6.7v4.4L313.3,42.4L313.3,42.4
			L313.3,42.4z"/>
		<path class="st0" d="M347.4,63.7h-4.9v-3.4c-2.1,2.5-4.9,3.8-8.5,3.8c-2.7,0-4.8-0.8-6.6-2.2c-1.8-1.5-2.6-3.5-2.6-6
			s0.9-4.4,2.8-5.6c1.8-1.3,4.4-1.9,7.5-1.9h7v-1c0-3.4-1.9-5.1-5.7-5.1c-2.4,0-4.8,0.8-7.4,2.6l-2.4-3.4c3.1-2.5,6.6-3.7,10.6-3.7
			c3,0,5.5,0.8,7.4,2.2c1.9,1.5,2.9,3.9,2.9,7.2L347.4,63.7C347.5,63.7,347.4,63.7,347.4,63.7z M342,54.1v-2.2h-6
			c-3.9,0-5.8,1.2-5.8,3.7c0,1.3,0.5,2.2,1.5,2.9c1,0.6,2.3,1,4,1c1.7,0,3.2-0.5,4.5-1.5C341.4,57.1,342,55.8,342,54.1z"/>
		<path class="st0" d="M354.3,33c-0.7-0.7-1-1.5-1-2.4s0.4-1.8,1-2.4c0.7-0.7,1.5-1,2.4-1s1.8,0.4,2.4,1c0.7,0.7,1,1.5,1,2.4
			s-0.4,1.8-1,2.4c-0.6,0.6-1.5,1-2.4,1C355.8,34,355,33.7,354.3,33z M359.4,63.7H354V38.1h5.4V63.7z"/>
		<path class="st0" d="M370.6,63.7h-5.4V28h5.4V63.7z"/>
	</g>
</g>
</svg>
