<?xml version="1.0" encoding="utf-8"?>
<!-- Generator: Adobe Illustrator 19.1.0, SVG Export Plug-In . SVG Version: 6.00 Build 0)  -->
<svg version="1.1" id="Layer_1" xmlns="http://www.w3.org/2000/svg" xmlns:xlink="http://www.w3.org/1999/xlink" x="0px" y="0px"
	 viewBox="121 -13.2 342.5 126.2" style="enable-background:new 121 -13.2 342.5 126.2;" xml:space="preserve">
<style type="text/css">
	.st0{fill:#FFFFFF;}
</style>
<g>
	<g>
		<g>
			<g>
				<path class="st0" d="M208.6,30.4"/>
			</g>
			<g>
				<circle class="st0" cx="206.9" cy="2.7" r="2.6"/>
			</g>
			<g>
				<polygon class="st0" points="223.4,13.8 214.8,5.5 208,13.8 				"/>
			</g>
			<path class="st0" d="M210.2,27.7c0,0-3.3-16.6-24.9-12.1c-2.2-7.5-1.8-13,3-18.1c6.5-6.9,16.7-3.1,16.7-3.1v-5.7
				c-3.6-1.6-7-1.9-10.8-1.9c-13.9,0-21.6,10.4-24.9,17.4l-39.1,71.9l11-2.1L121,113l14.1-2.5l10.8-30.7
				C176.5,79.8,215.7,68.8,210.2,27.7z M196.6,33.5c-0.1,0.5-0.1,1-0.2,1.5c-0.1,0.6-0.1,1.2-0.3,1.8c-0.1,0.6-0.3,1.3-0.4,2
				c-0.2,0.7-0.4,1.4-0.6,2.2c-0.2,0.8-0.5,1.5-0.8,2.4c-0.3,0.8-0.6,1.6-1,2.5c-0.2,0.4-0.4,0.8-0.6,1.2c-0.1,0.2-0.2,0.4-0.3,0.6
				c-0.1,0.2-0.2,0.4-0.3,0.6c-0.2,0.4-0.5,0.8-0.7,1.3c-0.3,0.4-0.5,0.8-0.8,1.2c-0.1,0.2-0.3,0.4-0.4,0.6l-0.4,0.6
				c-0.3,0.4-0.6,0.8-0.9,1.2c-0.7,0.8-1.3,1.6-2.1,2.3c-0.7,0.8-1.5,1.4-2.3,2.2l-1.2,1c-0.4,0.3-0.8,0.6-1.3,0.9
				c-1.7,1.2-3.5,2.3-5.3,3.3c-1.8,0.9-3.7,1.8-5.5,2.5c-1.8,0.7-3.6,1.3-5.3,1.8c-1.6,0.5-3,0.9-4.5,1.2c-0.1,0-0.2,0.1-0.3,0.1
				c-3,0.8-5.5,1.4-7.3,1.8c-1.8,0.4-2.8,0.6-2.8,0.6s1-0.2,2.6-0.8c1.8-0.3,4.4-0.9,7.4-1.6c0.1,0,0.3-0.1,0.4-0.1
				c1.4-0.4,2.9-0.9,4.5-1.4c1.7-0.6,3.5-1.2,5.2-2c1.8-0.7,3.6-1.6,5.4-2.6s3.5-2.1,5.1-3.4c0.4-0.3,0.8-0.6,1.2-1l1.2-1
				c0.7-0.7,1.5-1.4,2.2-2.2c0.7-0.7,1.3-1.5,1.9-2.3c0.3-0.4,0.6-0.8,0.9-1.2l0.4-0.6l0.4-0.6c0.2-0.4,0.5-0.8,0.7-1.2
				c0.2-0.4,0.4-0.8,0.7-1.2c0.1-0.2,0.2-0.4,0.3-0.6c0.1-0.2,0.2-0.4,0.3-0.6c0.2-0.4,0.4-0.8,0.5-1.2c0.3-0.8,0.6-1.6,0.9-2.4
				c0.2-0.8,0.5-1.6,0.7-2.3s0.3-1.5,0.5-2.1c0.1-0.7,0.2-1.3,0.3-2c0.1-0.6,0.2-1.2,0.2-1.7c0.1-0.5,0.1-1,0.2-1.5
				c0.1-1.8,0.1-2.8,0.1-2.8l1.6,0.1C196.8,30.6,196.7,31.7,196.6,33.5z"/>
		</g>
	</g>
	<g>
		<path class="st0" d="M248,70.7h-8.8l-12.6-36.4h7.9l9,27.5l9-27.5h7.9l9,27.5l9-27.5h7.9L274,70.7h-8.8l-8.6-24.9L248,70.7z"/>
		<path class="st0" d="M321.1,70.7h-7v-4.9c-3,3.6-7,5.4-12.1,5.4c-3.8,0-6.9-1.1-9.4-3.2s-3.7-5-3.7-8.6s1.3-6.3,4-8
			c2.6-1.8,6.2-2.7,10.7-2.7h9.9v-1.4c0-4.8-2.7-7.3-8.1-7.3c-3.4,0-6.9,1.2-10.5,3.7l-3.4-4.8c4.4-3.5,9.4-5.3,15.1-5.3
			c4.3,0,7.8,1.1,10.5,3.2c2.7,2.2,4.1,5.6,4.1,10.2v23.7C321.2,70.7,321.1,70.7,321.1,70.7z M313.4,57.1V54h-8.6
			c-5.5,0-8.3,1.7-8.3,5.2c0,1.8,0.7,3.1,2.1,4.1c1.4,0.9,3.3,1.4,5.7,1.4s4.6-0.7,6.4-2.1C312.5,61.3,313.4,59.5,313.4,57.1z"/>
		<path class="st0" d="M362.7,34.3V66c0,6.4-1.7,11.3-5.2,14.5s-8,4.8-13.4,4.8c-5.5,0-10.4-1.7-14.8-5.1l3.6-5.8
			c3.6,2.7,7.1,4,10.8,4c3.6,0,6.5-0.9,8.6-2.8s3.2-4.9,3.2-9v-4.7c-1.1,2.1-2.8,3.9-4.9,5.1c-2.1,1.3-4.5,1.9-7.1,1.9
			c-4.8,0-8.8-1.7-11.9-5.1c-3.1-3.4-4.7-7.6-4.7-12.6s1.6-9.2,4.7-12.6c3.1-3.4,7.1-5.1,11.9-5.1c4.8,0,8.7,2,11.7,6v-5.4h7.5V34.3
			L362.7,34.3z M334.3,51.1c0,3,0.9,5.6,2.8,7.7c1.8,2.2,4.3,3.2,7.5,3.2c3.1,0,5.7-1,7.6-3.1c1.9-2.1,2.9-4.7,2.9-7.8
			c0-3.1-1-5.8-2.9-7.9c-2-2.2-4.5-3.2-7.6-3.2s-5.6,1.1-7.4,3.4C335.2,45.5,334.3,48.1,334.3,51.1z"/>
		<path class="st0" d="M381.9,40.4v18.5c0,1.7,0.5,3.1,1.4,4.1s2.2,1.5,3.8,1.5c1.6,0,3.2-0.8,4.7-2.4l3.1,5.4
			c-2.7,2.4-5.7,3.6-8.9,3.6c-3.3,0-6-1.1-8.3-3.4s-3.5-5.3-3.5-9.1V40.4h-4.6v-6.2h4.6V22.9h7.7v11.4h9.6v6.2h-9.6L381.9,40.4
			L381.9,40.4z"/>
		<path class="st0" d="M430.5,70.7h-7v-4.9c-3,3.6-7,5.4-12.1,5.4c-3.8,0-6.9-1.1-9.4-3.2s-3.7-5-3.7-8.6s1.3-6.3,4-8
			c2.6-1.8,6.2-2.7,10.7-2.7h9.9v-1.4c0-4.8-2.7-7.3-8.1-7.3c-3.4,0-6.9,1.2-10.5,3.7l-3.4-4.8c4.4-3.5,9.4-5.3,15.1-5.3
			c4.3,0,7.8,1.1,10.5,3.2c2.7,2.2,4.1,5.6,4.1,10.2v23.7C430.6,70.7,430.5,70.7,430.5,70.7z M422.8,57.1V54h-8.6
			c-5.5,0-8.3,1.7-8.3,5.2c0,1.8,0.7,3.1,2.1,4.1c1.4,0.9,3.3,1.4,5.7,1.4c2.4,0,4.6-0.7,6.4-2.1C421.9,61.3,422.8,59.5,422.8,57.1z
			"/>
		<path class="st0" d="M440.3,27c-1-1-1.4-2.1-1.4-3.4c0-1.3,0.5-2.5,1.4-3.4c1-1,2.1-1.4,3.4-1.4s2.5,0.5,3.4,1.4
			c1,1,1.4,2.1,1.4,3.4c0,1.3-0.5,2.5-1.4,3.4s-2.1,1.4-3.4,1.4C442.4,28.5,441.3,28,440.3,27z M447.5,70.7h-7.7V34.3h7.7V70.7z"/>
		<path class="st0" d="M463.5,70.7h-7.7V19.9h7.7V70.7z"/>
	</g>
</g>
</svg>
